<svg xmlns="http://www.w3.org/2000/svg" xmlns:xlink="http://www.w3.org/1999/xlink" version="1.1" x="0px" y="0px" viewBox="0 0 100 125" style="enable-background:new 0 0 100 100;" xml:space="preserve"><g><path d="M20,38h-4c-1.1,0-2,0.9-2,2s0.9,2,2,2h4c1.1,0,2-0.9,2-2S21.1,38,20,38z"/><path d="M20,51h-4c-1.1,0-2,0.9-2,2s0.9,2,2,2h4c1.1,0,2-0.9,2-2S21.1,51,20,51z"/><path d="M20,64h-4c-1.1,0-2,0.9-2,2s0.9,2,2,2h4c1.1,0,2-0.9,2-2S21.1,64,20,64z"/><path d="M51,38H29c-1.1,0-2,0.9-2,2s0.9,2,2,2h22c1.1,0,2-0.9,2-2S52.1,38,51,38z"/><path d="M94.4,87.6l-8.6-8.6c2-2.8,3.2-6.2,3.2-9.9c0-5.9-3-11.3-8-14.4V11c0-1.1-0.9-2-2-2H7c-1.1,0-2,0.9-2,2v68c0,1.1,0.9,2,2,2   h53c3.2,3.2,7.5,5,12,5c4.2,0,8.1-1.6,11.1-4.1l8.5,8.5C92,90.8,92.5,91,93,91s1-0.2,1.4-0.6C95.2,89.6,95.2,88.4,94.4,87.6z    M77,13v12H9V13H77z M9,29h68v23.8c-1.6-0.5-3.3-0.8-5-0.8c-9.4,0-17,7.6-17,17c0,2.8,0.7,5.6,2,8H9V29z M62.3,77.7   C60.2,75.3,59,72.2,59,69c0-7.2,5.8-13,13-13c2.1,0,4.2,0.5,6.1,1.5C82.3,59.8,85,64.2,85,69c0,3.1-1.1,6-3,8.3   c-0.2,0.1-0.3,0.2-0.4,0.3c-0.2,0.2-0.3,0.4-0.4,0.6C78.8,80.5,75.6,82,72,82C68.3,82,64.8,80.4,62.3,77.7z"/><path d="M51,51H29c-1.1,0-2,0.9-2,2s0.9,2,2,2h22c1.1,0,2-0.9,2-2S52.1,51,51,51z"/><path d="M51,64H29c-1.1,0-2,0.9-2,2s0.9,2,2,2h22c1.1,0,2-0.9,2-2S52.1,64,51,64z"/></g></svg>