<svg xmlns="http://www.w3.org/2000/svg" xmlns:xlink="http://www.w3.org/1999/xlink" version="1.1" x="0px" y="0px" viewBox="0 0 100 125" enable-background="new 0 0 100 100" xml:space="preserve"><title>Noun_10x10</title><desc>Created with Sketch.</desc><g><path fill="#000000" d="M56.6,75.526l-5.857,5.751V50.26c0-1.535-0.982-2.499-2.56-2.499c-1.578,0-2.56,0.964-2.56,2.499v30.814   l-5.651-5.549c-1.033-1.014-2.55-1.014-3.584,0c-1.024,1.006-1.024,2.471,0,3.476l10.106,9.923c0.285,0.28,0.542,0.463,0.81,0.58   c0.277,0.12,0.589,0.18,0.982,0.18c0.75,0,1.231-0.21,1.792-0.76l10.106-9.923c1.025-1.006,1.025-2.47,0-3.476   C59.151,74.512,57.634,74.512,56.6,75.526z"/><path fill="#000000" d="M68.395,27.664c-0.857,0-1.649,0.078-2.737,0.254c-3.805-8.089-11.918-13.485-20.845-13.485   c-11.899,0-21.385,8.728-22.543,20.069c-7.836,1.087-13.705,7.479-13.705,15.505c0,8.811,7.046,15.729,16.035,15.729h14.705   c1.578,0,2.56-0.964,2.56-2.499s-0.982-2.499-2.56-2.499H24.601c-6.17,0-10.915-4.658-10.915-10.731s4.745-10.731,10.915-10.731   c1.578,0,2.561-0.964,2.561-2.499c0-9.711,7.776-17.346,17.652-17.346c7.79,0,14.493,4.885,16.582,12.08   c0.502,1.232,1.971,1.927,3.322,1.52c0.019-0.003,0.038,0.004,0.057,0c0.536-0.175,1.155-0.276,1.879-0.327   c0.511-0.036,0.922-0.043,1.741-0.043c7.855,0,14.283,6.312,14.283,14.038c0,7.727-6.429,14.039-14.283,14.039h-10.87   c-1.578,0-2.56,0.964-2.56,2.499s0.982,2.499,2.56,2.499h10.87c10.674,0,19.404-8.572,19.404-19.037   C87.799,36.235,79.069,27.664,68.395,27.664z"/></g></svg>