<svg xmlns="http://www.w3.org/2000/svg" xmlns:xlink="http://www.w3.org/1999/xlink" xml:space="preserve" version="1.1" style="shape-rendering:geometricPrecision;text-rendering:geometricPrecision;image-rendering:optimizeQuality;" viewBox="0 0 847 1058.75" x="0px" y="0px" fill-rule="evenodd" clip-rule="evenodd"><defs><style type="text/css">
   
    .fil0 {fill:black;fill-rule:nonzero}
   
  </style></defs><g><path class="fil0" d="M345 433c-12,-9 -24,-19 -34,-31 -24,24 -50,46 -79,64l-26 -44c27,-18 51,-38 74,-61 -21,-33 -36,-70 -45,-109l14 -3 -50 0c0,-19 0,-37 0,-56l84 0 0 -23c17,0 34,0 51,0l0 23 83 0 0 56 -17 0c-4,28 -15,55 -29,79 1,0 3,0 5,0l102 0 0 -196 -351 0 0 369 218 0 0 -68zm12 81l-230 0c-7,0 -12,-6 -12,-13l0 -369c0,-7 5,-13 12,-13l351 0c7,0 12,6 12,13l0 202 0 7 -6 0 -108 0c-11,0 -19,8 -19,19 0,11 0,23 0,35 -10,-10 -19,-19 -28,-30 32,-40 55,-77 60,-129l16 0 0 -30 -83 0 0 -23 -27 0 0 23 -83 0 0 30 152 0c-6,45 -23,73 -51,107 -17,-28 -30,-55 -39,-88l-25 7c10,35 27,71 47,101 -22,23 -47,45 -73,63l13 22c28,-19 52,-40 76,-64 14,17 27,30 45,42l0 88zm-72 -265c5,24 17,50 30,72 15,-21 29,-46 34,-72l-64 0z"/><path class="fil0" d="M551 460l1 0 5 0 1 4 1 5c3,12 6,27 10,39l0 0 14 49 2 8 -8 0 -50 0 -8 0 2 -8 14 -49 0 0c2,-8 4,-17 6,-26 1,-6 3,-13 4,-18l1 -4 5 0zm1 31c-2,7 -4,14 -5,20l0 0 -12 41 34 0 -12 -40 0 0c-2,-7 -4,-14 -5,-21z"/><path class="fil0" d="M730 363l-352 0 0 357 352 0 0 -357zm-352 -13l352 0c6,0 12,6 12,13l0 357c0,7 -6,12 -12,12l-352 0c-6,0 -12,-5 -12,-12l0 -357c0,-7 5,-13 12,-13zm202 253l-55 0 -16 59c-22,0 -44,0 -66,0l73 -241 75 0 74 241c-23,0 -45,0 -68,0l-17 -59zm26 46l42 0 -66 -216 -57 0 -65 216 39 0 16 -58c25,0 50,0 74,0l17 58z"/><path class="fil0" d="M542 804c-4,1 -7,3 -11,3 -98,28 -207,18 -303,-36 -92,-52 -156,-136 -185,-230l-35 7 12 -56 13 -56 33 47 33 47 -38 7c28,89 89,168 176,218 89,50 190,60 281,36l24 13z"/><path class="fil0" d="M619 76c92,51 155,133 185,225l35 -12 -5 58 -6 57 -38 -43 -39 -42 35 -12c-28,-88 -89,-166 -176,-215 -89,-50 -189,-60 -281,-37l-23 -13c3,-1 7,-2 10,-3 99,-27 207,-17 303,37z"/></g></svg>